<svg id="visual" viewBox="0 0 900 200" width="900" height="200" xmlns="http://www.w3.org/2000/svg" xmlns:xlink="http://www.w3.org/1999/xlink" version="1.1"><rect x="0" y="0" width="900" height="200" fill="#FFFFFF"></rect><path d="M0 30L15 29.2C30 28.3 60 26.7 90 23.8C120 21 150 17 180 17.2C210 17.3 240 21.7 270 24.3C300 27 330 28 360 29C390 30 420 31 450 30.8C480 30.7 510 29.3 540 26.3C570 23.3 600 18.7 630 18.8C660 19 690 24 720 27.2C750 30.3 780 31.7 810 34.3C840 37 870 41 885 43L900 45L900 201L885 201C870 201 840 201 810 201C780 201 750 201 720 201C690 201 660 201 630 201C600 201 570 201 540 201C510 201 480 201 450 201C420 201 390 201 360 201C330 201 300 201 270 201C240 201 210 201 180 201C150 201 120 201 90 201C60 201 30 201 15 201L0 201Z" fill="#06b6d4"></path><path d="M0 32L15 31.8C30 31.7 60 31.3 90 36.7C120 42 150 53 180 53.2C210 53.3 240 42.7 270 40.5C300 38.3 330 44.7 360 50.7C390 56.7 420 62.3 450 57.5C480 52.7 510 37.3 540 30.2C570 23 600 24 630 28C660 32 690 39 720 46.7C750 54.3 780 62.7 810 65.2C840 67.7 870 64.3 885 62.7L900 61L900 201L885 201C870 201 840 201 810 201C780 201 750 201 720 201C690 201 660 201 630 201C600 201 570 201 540 201C510 201 480 201 450 201C420 201 390 201 360 201C330 201 300 201 270 201C240 201 210 201 180 201C150 201 120 201 90 201C60 201 30 201 15 201L0 201Z" fill="#16a0c0"></path><path d="M0 88L15 83.7C30 79.3 60 70.7 90 64C120 57.3 150 52.7 180 56.3C210 60 240 72 270 77.5C300 83 330 82 360 75.8C390 69.7 420 58.3 450 52.5C480 46.7 510 46.3 540 49.7C570 53 600 60 630 60.8C660 61.7 690 56.3 720 57.7C750 59 780 67 810 72.2C840 77.3 870 79.7 885 80.8L900 82L900 201L885 201C870 201 840 201 810 201C780 201 750 201 720 201C690 201 660 201 630 201C600 201 570 201 540 201C510 201 480 201 450 201C420 201 390 201 360 201C330 201 300 201 270 201C240 201 210 201 180 201C150 201 120 201 90 201C60 201 30 201 15 201L0 201Z" fill="#1f8aab"></path><path d="M0 60L15 60.3C30 60.7 60 61.3 90 69.3C120 77.3 150 92.7 180 95.7C210 98.7 240 89.3 270 85C300 80.7 330 81.3 360 78.2C390 75 420 68 450 66.3C480 64.7 510 68.3 540 72.3C570 76.3 600 80.7 630 84C660 87.3 690 89.7 720 91.2C750 92.7 780 93.3 810 95.2C840 97 870 100 885 101.5L900 103L900 201L885 201C870 201 840 201 810 201C780 201 750 201 720 201C690 201 660 201 630 201C600 201 570 201 540 201C510 201 480 201 450 201C420 201 390 201 360 201C330 201 300 201 270 201C240 201 210 201 180 201C150 201 120 201 90 201C60 201 30 201 15 201L0 201Z" fill="#247495"></path><path d="M0 99L15 100.7C30 102.3 60 105.7 90 105.8C120 106 150 103 180 99.2C210 95.3 240 90.7 270 94C300 97.3 330 108.7 360 114.8C390 121 420 122 450 117.5C480 113 510 103 540 101C570 99 600 105 630 103C660 101 690 91 720 91.2C750 91.3 780 101.7 810 102.7C840 103.7 870 95.3 885 91.2L900 87L900 201L885 201C870 201 840 201 810 201C780 201 750 201 720 201C690 201 660 201 630 201C600 201 570 201 540 201C510 201 480 201 450 201C420 201 390 201 360 201C330 201 300 201 270 201C240 201 210 201 180 201C150 201 120 201 90 201C60 201 30 201 15 201L0 201Z" fill="#25607f"></path><path d="M0 144L15 140C30 136 60 128 90 127.5C120 127 150 134 180 135.7C210 137.3 240 133.7 270 134.2C300 134.7 330 139.3 360 136.3C390 133.3 420 122.7 450 116C480 109.3 510 106.7 540 110.3C570 114 600 124 630 123.2C660 122.3 690 110.7 720 107C750 103.3 780 107.7 810 112.8C840 118 870 124 885 127L900 130L900 201L885 201C870 201 840 201 810 201C780 201 750 201 720 201C690 201 660 201 630 201C600 201 570 201 540 201C510 201 480 201 450 201C420 201 390 201 360 201C330 201 300 201 270 201C240 201 210 201 180 201C150 201 120 201 90 201C60 201 30 201 15 201L0 201Z" fill="#244c69"></path><path d="M0 151L15 151.2C30 151.3 60 151.7 90 150.2C120 148.7 150 145.3 180 144C210 142.7 240 143.3 270 140.7C300 138 330 132 360 129.7C390 127.3 420 128.7 450 131.2C480 133.7 510 137.3 540 142.5C570 147.7 600 154.3 630 155.2C660 156 690 151 720 145.8C750 140.7 780 135.3 810 137.8C840 140.3 870 150.7 885 155.8L900 161L900 201L885 201C870 201 840 201 810 201C780 201 750 201 720 201C690 201 660 201 630 201C600 201 570 201 540 201C510 201 480 201 450 201C420 201 390 201 360 201C330 201 300 201 270 201C240 201 210 201 180 201C150 201 120 201 90 201C60 201 30 201 15 201L0 201Z" fill="#203a52"></path><path d="M0 177L15 172C30 167 60 157 90 151.5C120 146 150 145 180 147.7C210 150.3 240 156.7 270 160.2C300 163.7 330 164.3 360 164.7C390 165 420 165 450 164.3C480 163.7 510 162.3 540 161.8C570 161.3 600 161.7 630 160.5C660 159.3 690 156.7 720 156.3C750 156 780 158 810 158.2C840 158.3 870 156.7 885 155.8L900 155L900 201L885 201C870 201 840 201 810 201C780 201 750 201 720 201C690 201 660 201 630 201C600 201 570 201 540 201C510 201 480 201 450 201C420 201 390 201 360 201C330 201 300 201 270 201C240 201 210 201 180 201C150 201 120 201 90 201C60 201 30 201 15 201L0 201Z" fill="#19283c"></path><path d="M0 174L15 175.8C30 177.7 60 181.3 90 179.8C120 178.3 150 171.7 180 170.8C210 170 240 175 270 174.2C300 173.3 330 166.7 360 163.3C390 160 420 160 450 163.2C480 166.3 510 172.7 540 175.7C570 178.7 600 178.3 630 177.8C660 177.3 690 176.7 720 178.2C750 179.7 780 183.3 810 180.7C840 178 870 169 885 164.5L900 160L900 201L885 201C870 201 840 201 810 201C780 201 750 201 720 201C690 201 660 201 630 201C600 201 570 201 540 201C510 201 480 201 450 201C420 201 390 201 360 201C330 201 300 201 270 201C240 201 210 201 180 201C150 201 120 201 90 201C60 201 30 201 15 201L0 201Z" fill="#111827"></path></svg>