<svg id="visual" viewBox="0 0 900 200" width="900" height="200" xmlns="http://www.w3.org/2000/svg" xmlns:xlink="http://www.w3.org/1999/xlink" version="1.1"><rect x="0" y="0" width="900" height="200" fill="#111827"></rect><path d="M0 76L15 83C30 90 60 104 90 112.7C120 121.3 150 124.7 180 124.5C210 124.3 240 120.7 270 110.8C300 101 330 85 360 82.8C390 80.7 420 92.3 450 101.7C480 111 510 118 540 117.5C570 117 600 109 630 109C660 109 690 117 720 113.7C750 110.3 780 95.7 810 86.7C840 77.7 870 74.3 885 72.7L900 71L900 201L885 201C870 201 840 201 810 201C780 201 750 201 720 201C690 201 660 201 630 201C600 201 570 201 540 201C510 201 480 201 450 201C420 201 390 201 360 201C330 201 300 201 270 201C240 201 210 201 180 201C150 201 120 201 90 201C60 201 30 201 15 201L0 201Z" fill="#020617" stroke-linecap="round" stroke-linejoin="miter"></path></svg>