<svg id="visual" viewBox="0 0 900 200" width="900" height="200" xmlns="http://www.w3.org/2000/svg" xmlns:xlink="http://www.w3.org/1999/xlink" version="1.1"><rect x="0" y="0" width="900" height="200" fill="#FFFFFF"></rect><path d="M0 146L21.5 144.2C43 142.3 86 138.7 128.8 137.3C171.7 136 214.3 137 257.2 138.8C300 140.7 343 143.3 385.8 149.2C428.7 155 471.3 164 514.2 160.2C557 156.3 600 139.7 642.8 137.3C685.7 135 728.3 147 771.2 153.2C814 159.3 857 159.7 878.5 159.8L900 160L900 0L878.5 0C857 0 814 0 771.2 0C728.3 0 685.7 0 642.8 0C600 0 557 0 514.2 0C471.3 0 428.7 0 385.8 0C343 0 300 0 257.2 0C214.3 0 171.7 0 128.8 0C86 0 43 0 21.5 0L0 0Z" fill="#06b6d4"></path><path d="M0 106L21.5 112.5C43 119 86 132 128.8 138.3C171.7 144.7 214.3 144.3 257.2 140.7C300 137 343 130 385.8 124C428.7 118 471.3 113 514.2 110.5C557 108 600 108 642.8 113.7C685.7 119.3 728.3 130.7 771.2 135.8C814 141 857 140 878.5 139.5L900 139L900 0L878.5 0C857 0 814 0 771.2 0C728.3 0 685.7 0 642.8 0C600 0 557 0 514.2 0C471.3 0 428.7 0 385.8 0C343 0 300 0 257.2 0C214.3 0 171.7 0 128.8 0C86 0 43 0 21.5 0L0 0Z" fill="#00a3cf"></path><path d="M0 125L21.5 121.3C43 117.7 86 110.3 128.8 110.5C171.7 110.7 214.3 118.3 257.2 120.5C300 122.7 343 119.3 385.8 112.7C428.7 106 471.3 96 514.2 93C557 90 600 94 642.8 99.8C685.7 105.7 728.3 113.3 771.2 111.2C814 109 857 97 878.5 91L900 85L900 0L878.5 0C857 0 814 0 771.2 0C728.3 0 685.7 0 642.8 0C600 0 557 0 514.2 0C471.3 0 428.7 0 385.8 0C343 0 300 0 257.2 0C214.3 0 171.7 0 128.8 0C86 0 43 0 21.5 0L0 0Z" fill="#008fc7"></path><path d="M0 98L21.5 95.5C43 93 86 88 128.8 84.3C171.7 80.7 214.3 78.3 257.2 80.5C300 82.7 343 89.3 385.8 88.7C428.7 88 471.3 80 514.2 81.8C557 83.7 600 95.3 642.8 94.7C685.7 94 728.3 81 771.2 78.3C814 75.7 857 83.3 878.5 87.2L900 91L900 0L878.5 0C857 0 814 0 771.2 0C728.3 0 685.7 0 642.8 0C600 0 557 0 514.2 0C471.3 0 428.7 0 385.8 0C343 0 300 0 257.2 0C214.3 0 171.7 0 128.8 0C86 0 43 0 21.5 0L0 0Z" fill="#007abb"></path><path d="M0 50L21.5 55.2C43 60.3 86 70.7 128.8 72.2C171.7 73.7 214.3 66.3 257.2 61.5C300 56.7 343 54.3 385.8 54C428.7 53.7 471.3 55.3 514.2 58.2C557 61 600 65 642.8 69.7C685.7 74.3 728.3 79.7 771.2 76.5C814 73.3 857 61.7 878.5 55.8L900 50L900 0L878.5 0C857 0 814 0 771.2 0C728.3 0 685.7 0 642.8 0C600 0 557 0 514.2 0C471.3 0 428.7 0 385.8 0C343 0 300 0 257.2 0C214.3 0 171.7 0 128.8 0C86 0 43 0 21.5 0L0 0Z" fill="#0065ad"></path><path d="M0 43L21.5 42.3C43 41.7 86 40.3 128.8 41C171.7 41.7 214.3 44.3 257.2 46.2C300 48 343 49 385.8 47.5C428.7 46 471.3 42 514.2 43.2C557 44.3 600 50.7 642.8 53.7C685.7 56.7 728.3 56.3 771.2 51.7C814 47 857 38 878.5 33.5L900 29L900 0L878.5 0C857 0 814 0 771.2 0C728.3 0 685.7 0 642.8 0C600 0 557 0 514.2 0C471.3 0 428.7 0 385.8 0C343 0 300 0 257.2 0C214.3 0 171.7 0 128.8 0C86 0 43 0 21.5 0L0 0Z" fill="#0d509c"></path><path d="M0 24L21.5 26.2C43 28.3 86 32.7 128.8 33C171.7 33.3 214.3 29.7 257.2 29.3C300 29 343 32 385.8 30.2C428.7 28.3 471.3 21.7 514.2 17.7C557 13.7 600 12.3 642.8 15.2C685.7 18 728.3 25 771.2 25.2C814 25.3 857 18.7 878.5 15.3L900 12L900 0L878.5 0C857 0 814 0 771.2 0C728.3 0 685.7 0 642.8 0C600 0 557 0 514.2 0C471.3 0 428.7 0 385.8 0C343 0 300 0 257.2 0C214.3 0 171.7 0 128.8 0C86 0 43 0 21.5 0L0 0Z" fill="#1e3a8a"></path></svg>